<svg width="625" height="476" viewBox="0 0 625 476" fill="none" xmlns="http://www.w3.org/2000/svg">
<path d="M311.043 249.003C370.296 243.357 423.611 234.48 461.917 224.679C481.06 219.782 496.516 214.639 507.104 209.526C512.39 206.974 516.541 204.392 519.333 201.797C522.1 199.227 523.758 196.427 523.476 193.473C523.195 190.519 521.038 188.082 517.836 186.081C514.603 184.061 510.04 182.309 504.367 180.801C493.004 177.78 476.855 175.648 457.132 174.454C417.663 172.065 363.631 173.415 304.379 179.061C245.127 184.707 191.812 193.585 153.505 203.385C134.362 208.283 118.906 213.426 108.319 218.538C103.032 221.091 98.8818 223.673 96.0893 226.267C93.3227 228.837 91.6646 231.637 91.946 234.591C92.2275 237.545 94.3846 239.982 97.5868 241.983C100.819 244.004 105.383 245.755 111.056 247.263C122.418 250.285 138.567 252.416 158.291 253.61C197.759 256 251.791 254.649 311.043 249.003Z" stroke="#F1F1F1" stroke-width="2.74863"/>
<path d="M315.446 264.668C380.382 258.48 438.863 247.841 480.958 235.571C501.954 229.45 519.193 222.834 531.169 215.993C537.137 212.584 542.136 208.931 545.628 204.989C549.117 201.053 551.633 196.193 551.107 190.678C550.582 185.163 547.193 180.866 543.024 177.659C538.85 174.448 533.252 171.805 526.747 169.584C513.694 165.128 495.516 161.886 473.742 159.841C430.087 155.741 370.65 156.338 305.713 162.526C240.777 168.713 182.297 179.352 140.202 191.622C119.205 197.743 101.967 204.359 89.9905 211.2C84.0219 214.61 79.0237 218.262 75.5311 222.204C72.0429 226.14 69.5266 231.001 70.052 236.515C70.5775 242.03 73.9664 246.327 78.1353 249.534C82.3094 252.745 87.9075 255.388 94.4126 257.609C107.465 262.065 125.643 265.307 147.417 267.352C191.072 271.452 250.51 270.855 315.446 264.668Z" stroke="#F1F1F1" stroke-width="12.793"/>
<circle cx="308.289" cy="209.083" r="185.15" fill="white" stroke="#F1F1F1" stroke-width="13.225"/>
<circle cx="262.013" cy="161.2" r="85.9623" fill="#F1F1F1"/>
<circle cx="262.014" cy="161.198" r="72.7374" fill="#CFCFCF"/>
<circle cx="374.408" cy="288.433" r="34.9518" fill="#F1F1F1"/>
<circle cx="374.408" cy="288.433" r="33.0624" fill="#CFCFCF"/>
<path d="M29.2541 104.254L58.5081 127.509L87.7622 104.254L64.507 133.508L87.7622 162.762L58.5081 139.507L29.2541 162.762L52.5092 133.508L29.2541 104.254Z" fill="#F1F1F1"/>
<path d="M510.825 37.8256L548.508 68.2607L586.191 37.8256L555.756 75.5083L586.191 113.191L548.508 82.7559L510.825 113.191L541.26 75.5083L510.825 37.8256Z" fill="#F1F1F1"/>
<path d="M580.602 277.602L595.205 287.269L609.807 277.602L600.14 292.205L609.807 306.807L595.205 297.14L580.602 306.807L590.269 292.205L580.602 277.602Z" fill="#F1F1F1"/>
<path d="M122.164 393.164L130.205 398.487L138.245 393.164L132.922 401.205L138.245 409.245L130.205 403.922L122.164 409.245L127.487 401.205L122.164 393.164Z" fill="#F1F1F1"/>
<path d="M385.866 411.867L407.08 425.911L428.294 411.867L414.251 433.081L428.294 454.295L407.08 440.251L385.866 454.295L399.91 433.081L385.866 411.867Z" fill="#F1F1F1"/>
</svg>
